<mxfile host="app.diagrams.net" modified="2021-05-13T18:45:00.682Z" agent="5.0 (Macintosh; Intel Mac OS X 10_15_7) AppleWebKit/537.36 (KHTML, like Gecko) Chrome/90.0.4430.93 Safari/537.36" etag="TndkeRHgsoV_se33yqQO" version="14.6.12" type="github">
  <diagram id="zxEk762uWx7oWHBzk6WQ" name="Page-1">
    <mxGraphModel dx="1426" dy="800" grid="1" gridSize="10" guides="1" tooltips="1" connect="1" arrows="1" fold="1" page="1" pageScale="1" pageWidth="1169" pageHeight="1654" math="0" shadow="0">
      <root>
        <mxCell id="0" />
        <mxCell id="1" parent="0" />
        <mxCell id="VmW0fn3-Mdyx6dZJiZs_-131" value="" style="rounded=0;whiteSpace=wrap;html=1;fillColor=none;" vertex="1" parent="1">
          <mxGeometry x="385" y="710" width="615" height="240" as="geometry" />
        </mxCell>
        <mxCell id="VmW0fn3-Mdyx6dZJiZs_-134" value=":Controller" style="rounded=0;whiteSpace=wrap;html=1;" vertex="1" parent="1">
          <mxGeometry x="390" y="710" width="90" height="60" as="geometry" />
        </mxCell>
        <mxCell id="VmW0fn3-Mdyx6dZJiZs_-133" value="" style="verticalLabelPosition=bottom;verticalAlign=top;html=1;shape=mxgraph.basic.orthogonal_triangle;fillColor=#ffffff;rotation=-90;" vertex="1" parent="1">
          <mxGeometry x="677.5" y="677.5" width="35" height="32.5" as="geometry" />
        </mxCell>
        <mxCell id="VmW0fn3-Mdyx6dZJiZs_-69" value="" style="rounded=0;whiteSpace=wrap;html=1;fontSize=10;fillColor=none;strokeWidth=2;" vertex="1" parent="1">
          <mxGeometry x="355" y="380" width="640" height="150" as="geometry" />
        </mxCell>
        <mxCell id="VmW0fn3-Mdyx6dZJiZs_-70" value="Manager" style="shape=umlActor;verticalLabelPosition=bottom;verticalAlign=top;html=1;outlineConnect=0;" vertex="1" parent="1">
          <mxGeometry x="55" y="50" width="30" height="60" as="geometry" />
        </mxCell>
        <mxCell id="VmW0fn3-Mdyx6dZJiZs_-71" value="" style="endArrow=none;dashed=1;html=1;" edge="1" parent="1">
          <mxGeometry width="50" height="50" relative="1" as="geometry">
            <mxPoint x="69.5" y="784" as="sourcePoint" />
            <mxPoint x="70" y="130" as="targetPoint" />
          </mxGeometry>
        </mxCell>
        <mxCell id="VmW0fn3-Mdyx6dZJiZs_-72" value=":Send Feedback&lt;br&gt;View" style="rounded=0;whiteSpace=wrap;html=1;" vertex="1" parent="1">
          <mxGeometry x="125" y="50" width="100" height="60" as="geometry" />
        </mxCell>
        <mxCell id="VmW0fn3-Mdyx6dZJiZs_-73" value="" style="rounded=0;whiteSpace=wrap;html=1;" vertex="1" parent="1">
          <mxGeometry x="165" y="160" width="20" height="100" as="geometry" />
        </mxCell>
        <mxCell id="VmW0fn3-Mdyx6dZJiZs_-74" value="" style="endArrow=classic;html=1;" edge="1" parent="1">
          <mxGeometry width="50" height="50" relative="1" as="geometry">
            <mxPoint x="186" y="178" as="sourcePoint" />
            <mxPoint x="430" y="178" as="targetPoint" />
          </mxGeometry>
        </mxCell>
        <mxCell id="VmW0fn3-Mdyx6dZJiZs_-75" value="&lt;font style=&quot;font-size: 11px&quot;&gt;show&lt;br&gt;(sendFeedbackPage)&lt;/font&gt;" style="text;html=1;align=center;verticalAlign=middle;resizable=0;points=[];autosize=1;strokeColor=none;" vertex="1" parent="1">
          <mxGeometry x="240" y="140" width="120" height="40" as="geometry" />
        </mxCell>
        <mxCell id="VmW0fn3-Mdyx6dZJiZs_-76" value="" style="endArrow=classic;html=1;" edge="1" parent="1">
          <mxGeometry width="50" height="50" relative="1" as="geometry">
            <mxPoint x="430" y="210" as="sourcePoint" />
            <mxPoint x="185" y="210" as="targetPoint" />
          </mxGeometry>
        </mxCell>
        <mxCell id="VmW0fn3-Mdyx6dZJiZs_-77" value="&lt;font style=&quot;font-size: 9px&quot;&gt;render&lt;br&gt;(sendFeedbackPage)&lt;/font&gt;" style="text;html=1;align=center;verticalAlign=middle;resizable=0;points=[];autosize=1;strokeColor=none;" vertex="1" parent="1">
          <mxGeometry x="245" y="210" width="110" height="30" as="geometry" />
        </mxCell>
        <mxCell id="VmW0fn3-Mdyx6dZJiZs_-78" value="" style="endArrow=none;dashed=1;html=1;exitX=0.5;exitY=0;exitDx=0;exitDy=0;" edge="1" parent="1" source="VmW0fn3-Mdyx6dZJiZs_-73">
          <mxGeometry width="50" height="50" relative="1" as="geometry">
            <mxPoint x="125" y="160" as="sourcePoint" />
            <mxPoint x="175" y="110" as="targetPoint" />
          </mxGeometry>
        </mxCell>
        <mxCell id="VmW0fn3-Mdyx6dZJiZs_-79" value="" style="endArrow=classic;html=1;" edge="1" parent="1">
          <mxGeometry width="50" height="50" relative="1" as="geometry">
            <mxPoint x="165" y="230" as="sourcePoint" />
            <mxPoint x="75" y="230" as="targetPoint" />
          </mxGeometry>
        </mxCell>
        <mxCell id="VmW0fn3-Mdyx6dZJiZs_-80" value="&lt;font style=&quot;font-size: 13px;&quot;&gt;Result&lt;br style=&quot;font-size: 13px;&quot;&gt;Displayed&lt;br style=&quot;font-size: 13px;&quot;&gt;&lt;/font&gt;" style="text;html=1;align=center;verticalAlign=middle;resizable=0;points=[];autosize=1;strokeColor=none;fontSize=13;" vertex="1" parent="1">
          <mxGeometry x="80" y="230" width="70" height="40" as="geometry" />
        </mxCell>
        <mxCell id="VmW0fn3-Mdyx6dZJiZs_-81" value="" style="rounded=0;whiteSpace=wrap;html=1;" vertex="1" parent="1">
          <mxGeometry x="165" y="290" width="20" height="450" as="geometry" />
        </mxCell>
        <mxCell id="VmW0fn3-Mdyx6dZJiZs_-82" value="" style="endArrow=none;dashed=1;html=1;exitX=0.5;exitY=0;exitDx=0;exitDy=0;" edge="1" parent="1" source="VmW0fn3-Mdyx6dZJiZs_-81">
          <mxGeometry width="50" height="50" relative="1" as="geometry">
            <mxPoint x="125" y="310" as="sourcePoint" />
            <mxPoint x="175" y="260" as="targetPoint" />
          </mxGeometry>
        </mxCell>
        <mxCell id="VmW0fn3-Mdyx6dZJiZs_-83" value="Write Feedback Menu" style="text;html=1;strokeColor=none;fillColor=none;align=center;verticalAlign=middle;whiteSpace=wrap;rounded=0;" vertex="1" parent="1">
          <mxGeometry x="85" y="180" width="70" height="20" as="geometry" />
        </mxCell>
        <mxCell id="VmW0fn3-Mdyx6dZJiZs_-84" value="" style="endArrow=classic;html=1;entryX=-0.05;entryY=0.1;entryDx=0;entryDy=0;entryPerimeter=0;" edge="1" parent="1" target="VmW0fn3-Mdyx6dZJiZs_-73">
          <mxGeometry width="50" height="50" relative="1" as="geometry">
            <mxPoint x="75" y="170" as="sourcePoint" />
            <mxPoint x="125" y="120" as="targetPoint" />
          </mxGeometry>
        </mxCell>
        <mxCell id="VmW0fn3-Mdyx6dZJiZs_-85" value="" style="endArrow=classic;html=1;" edge="1" parent="1">
          <mxGeometry width="50" height="50" relative="1" as="geometry">
            <mxPoint x="76.5" y="300" as="sourcePoint" />
            <mxPoint x="163.5" y="300" as="targetPoint" />
          </mxGeometry>
        </mxCell>
        <mxCell id="VmW0fn3-Mdyx6dZJiZs_-86" value="&lt;font style=&quot;font-size: 13px&quot;&gt;Send Feedback&lt;br&gt;Request&lt;br style=&quot;font-size: 13px&quot;&gt;&lt;/font&gt;" style="text;html=1;align=center;verticalAlign=middle;resizable=0;points=[];autosize=1;strokeColor=none;fontSize=13;" vertex="1" parent="1">
          <mxGeometry x="61.5" y="302" width="110" height="40" as="geometry" />
        </mxCell>
        <mxCell id="VmW0fn3-Mdyx6dZJiZs_-87" value=":Controller" style="rounded=0;whiteSpace=wrap;html=1;" vertex="1" parent="1">
          <mxGeometry x="385" y="50" width="90" height="60" as="geometry" />
        </mxCell>
        <mxCell id="VmW0fn3-Mdyx6dZJiZs_-88" value="" style="endArrow=none;dashed=1;html=1;" edge="1" parent="1">
          <mxGeometry width="50" height="50" relative="1" as="geometry">
            <mxPoint x="429" y="290" as="sourcePoint" />
            <mxPoint x="429" y="110" as="targetPoint" />
          </mxGeometry>
        </mxCell>
        <mxCell id="VmW0fn3-Mdyx6dZJiZs_-89" value="" style="rounded=0;whiteSpace=wrap;html=1;" vertex="1" parent="1">
          <mxGeometry x="420" y="290" width="20" height="370" as="geometry" />
        </mxCell>
        <mxCell id="VmW0fn3-Mdyx6dZJiZs_-90" value="" style="endArrow=classic;html=1;entryX=0.05;entryY=0.108;entryDx=0;entryDy=0;entryPerimeter=0;" edge="1" parent="1" target="VmW0fn3-Mdyx6dZJiZs_-89">
          <mxGeometry width="50" height="50" relative="1" as="geometry">
            <mxPoint x="185" y="330" as="sourcePoint" />
            <mxPoint x="235" y="280" as="targetPoint" />
          </mxGeometry>
        </mxCell>
        <mxCell id="VmW0fn3-Mdyx6dZJiZs_-91" value="sendFeedback&lt;br&gt;(is_anonymous, user_id, content)" style="text;html=1;align=center;verticalAlign=middle;resizable=0;points=[];autosize=1;strokeColor=none;fillColor=#FFFFFF;" vertex="1" parent="1">
          <mxGeometry x="200" y="297" width="190" height="30" as="geometry" />
        </mxCell>
        <mxCell id="VmW0fn3-Mdyx6dZJiZs_-92" value=":IDGenerator" style="rounded=0;whiteSpace=wrap;html=1;" vertex="1" parent="1">
          <mxGeometry x="505" y="50" width="90" height="60" as="geometry" />
        </mxCell>
        <mxCell id="VmW0fn3-Mdyx6dZJiZs_-93" value="" style="rounded=0;whiteSpace=wrap;html=1;" vertex="1" parent="1">
          <mxGeometry x="540" y="390" width="20" height="40" as="geometry" />
        </mxCell>
        <mxCell id="VmW0fn3-Mdyx6dZJiZs_-94" value="" style="endArrow=none;dashed=1;html=1;exitX=0.5;exitY=0;exitDx=0;exitDy=0;" edge="1" parent="1" source="VmW0fn3-Mdyx6dZJiZs_-93">
          <mxGeometry width="50" height="50" relative="1" as="geometry">
            <mxPoint x="549.5" y="290" as="sourcePoint" />
            <mxPoint x="549.5" y="110" as="targetPoint" />
          </mxGeometry>
        </mxCell>
        <mxCell id="VmW0fn3-Mdyx6dZJiZs_-95" value="" style="endArrow=classic;html=1;" edge="1" parent="1">
          <mxGeometry width="50" height="50" relative="1" as="geometry">
            <mxPoint x="440" y="409.5" as="sourcePoint" />
            <mxPoint x="545" y="409.5" as="targetPoint" />
          </mxGeometry>
        </mxCell>
        <mxCell id="VmW0fn3-Mdyx6dZJiZs_-96" value="FeedbackID :=&lt;br&gt;&amp;nbsp;generateID()" style="text;html=1;align=center;verticalAlign=middle;resizable=0;points=[];autosize=1;strokeColor=none;fontSize=10;" vertex="1" parent="1">
          <mxGeometry x="455" y="380" width="80" height="30" as="geometry" />
        </mxCell>
        <mxCell id="VmW0fn3-Mdyx6dZJiZs_-97" value=":Authentication&lt;br&gt;Checker" style="rounded=0;whiteSpace=wrap;html=1;" vertex="1" parent="1">
          <mxGeometry x="635" y="50" width="110" height="60" as="geometry" />
        </mxCell>
        <mxCell id="VmW0fn3-Mdyx6dZJiZs_-98" value="" style="endArrow=none;dashed=1;html=1;exitX=0.5;exitY=0;exitDx=0;exitDy=0;" edge="1" parent="1" source="VmW0fn3-Mdyx6dZJiZs_-99">
          <mxGeometry width="50" height="50" relative="1" as="geometry">
            <mxPoint x="695.5" y="310" as="sourcePoint" />
            <mxPoint x="695" y="110" as="targetPoint" />
          </mxGeometry>
        </mxCell>
        <mxCell id="VmW0fn3-Mdyx6dZJiZs_-99" value="" style="rounded=0;whiteSpace=wrap;html=1;" vertex="1" parent="1">
          <mxGeometry x="685" y="330" width="20" height="40" as="geometry" />
        </mxCell>
        <mxCell id="VmW0fn3-Mdyx6dZJiZs_-100" value="" style="endArrow=classic;html=1;" edge="1" parent="1">
          <mxGeometry width="50" height="50" relative="1" as="geometry">
            <mxPoint x="440" y="350" as="sourcePoint" />
            <mxPoint x="685" y="350" as="targetPoint" />
          </mxGeometry>
        </mxCell>
        <mxCell id="VmW0fn3-Mdyx6dZJiZs_-101" value="Auth := Authenticate()" style="text;html=1;strokeColor=none;fillColor=none;align=center;verticalAlign=middle;whiteSpace=wrap;rounded=0;" vertex="1" parent="1">
          <mxGeometry x="535" y="327" width="160" height="20" as="geometry" />
        </mxCell>
        <mxCell id="VmW0fn3-Mdyx6dZJiZs_-102" value="&lt;b style=&quot;font-size: 12px&quot;&gt;&lt;font style=&quot;font-size: 17px&quot;&gt;OPT&lt;/font&gt;&lt;/b&gt;" style="rounded=0;whiteSpace=wrap;html=1;fontSize=10;fillColor=none;" vertex="1" parent="1">
          <mxGeometry x="355" y="380" width="60" height="40" as="geometry" />
        </mxCell>
        <mxCell id="VmW0fn3-Mdyx6dZJiZs_-103" value="if Auth == True" style="text;html=1;strokeColor=none;align=center;verticalAlign=middle;whiteSpace=wrap;rounded=0;" vertex="1" parent="1">
          <mxGeometry x="335" y="420" width="130" height="20" as="geometry" />
        </mxCell>
        <mxCell id="VmW0fn3-Mdyx6dZJiZs_-104" value="Database" style="shape=umlActor;verticalLabelPosition=bottom;verticalAlign=top;html=1;outlineConnect=0;" vertex="1" parent="1">
          <mxGeometry x="930" y="40" width="30" height="60" as="geometry" />
        </mxCell>
        <mxCell id="VmW0fn3-Mdyx6dZJiZs_-105" value="Database&lt;br&gt;Connection" style="rounded=0;whiteSpace=wrap;html=1;" vertex="1" parent="1">
          <mxGeometry x="785" y="50" width="100" height="60" as="geometry" />
        </mxCell>
        <mxCell id="VmW0fn3-Mdyx6dZJiZs_-106" value="" style="endArrow=none;dashed=1;html=1;fontSize=10;exitX=0.5;exitY=0;exitDx=0;exitDy=0;" edge="1" parent="1" source="VmW0fn3-Mdyx6dZJiZs_-107">
          <mxGeometry width="50" height="50" relative="1" as="geometry">
            <mxPoint x="835" y="460" as="sourcePoint" />
            <mxPoint x="835" y="110" as="targetPoint" />
          </mxGeometry>
        </mxCell>
        <mxCell id="VmW0fn3-Mdyx6dZJiZs_-107" value="" style="rounded=0;whiteSpace=wrap;html=1;fontSize=10;fillColor=none;" vertex="1" parent="1">
          <mxGeometry x="825" y="450" width="20" height="60" as="geometry" />
        </mxCell>
        <mxCell id="VmW0fn3-Mdyx6dZJiZs_-108" value="" style="endArrow=classic;html=1;fontSize=10;" edge="1" parent="1">
          <mxGeometry width="50" height="50" relative="1" as="geometry">
            <mxPoint x="440" y="470" as="sourcePoint" />
            <mxPoint x="825" y="470" as="targetPoint" />
          </mxGeometry>
        </mxCell>
        <mxCell id="VmW0fn3-Mdyx6dZJiZs_-109" value="saveFeedback (is_anonymous, user_id, content, FeedbackID)" style="text;html=1;align=center;verticalAlign=middle;resizable=0;points=[];autosize=1;strokeColor=none;" vertex="1" parent="1">
          <mxGeometry x="455" y="445" width="350" height="20" as="geometry" />
        </mxCell>
        <mxCell id="VmW0fn3-Mdyx6dZJiZs_-110" value="" style="rounded=0;whiteSpace=wrap;html=1;" vertex="1" parent="1">
          <mxGeometry x="935" y="460" width="20" height="40" as="geometry" />
        </mxCell>
        <mxCell id="VmW0fn3-Mdyx6dZJiZs_-111" value="" style="endArrow=classic;html=1;strokeWidth=1;entryX=0;entryY=0.5;entryDx=0;entryDy=0;exitX=1;exitY=0.5;exitDx=0;exitDy=0;" edge="1" parent="1" source="VmW0fn3-Mdyx6dZJiZs_-107" target="VmW0fn3-Mdyx6dZJiZs_-110">
          <mxGeometry width="50" height="50" relative="1" as="geometry">
            <mxPoint x="845" y="474.5" as="sourcePoint" />
            <mxPoint x="925" y="474.5" as="targetPoint" />
          </mxGeometry>
        </mxCell>
        <mxCell id="VmW0fn3-Mdyx6dZJiZs_-112" value="Insert Data" style="text;html=1;strokeColor=none;fillColor=none;align=center;verticalAlign=middle;whiteSpace=wrap;rounded=0;" vertex="1" parent="1">
          <mxGeometry x="850" y="460" width="80" height="20" as="geometry" />
        </mxCell>
        <mxCell id="VmW0fn3-Mdyx6dZJiZs_-113" value="" style="endArrow=classic;html=1;strokeWidth=1;exitX=0;exitY=0.75;exitDx=0;exitDy=0;entryX=1.05;entryY=0.65;entryDx=0;entryDy=0;entryPerimeter=0;" edge="1" parent="1" source="VmW0fn3-Mdyx6dZJiZs_-110" target="VmW0fn3-Mdyx6dZJiZs_-107">
          <mxGeometry width="50" height="50" relative="1" as="geometry">
            <mxPoint x="930" y="490" as="sourcePoint" />
            <mxPoint x="850" y="490" as="targetPoint" />
          </mxGeometry>
        </mxCell>
        <mxCell id="VmW0fn3-Mdyx6dZJiZs_-114" value="result" style="text;html=1;strokeColor=none;fillColor=none;align=center;verticalAlign=middle;whiteSpace=wrap;rounded=0;" vertex="1" parent="1">
          <mxGeometry x="850" y="490" width="80" height="20" as="geometry" />
        </mxCell>
        <mxCell id="VmW0fn3-Mdyx6dZJiZs_-115" value="" style="endArrow=none;dashed=1;html=1;fontSize=10;exitX=0.5;exitY=0;exitDx=0;exitDy=0;" edge="1" parent="1" source="VmW0fn3-Mdyx6dZJiZs_-110">
          <mxGeometry width="50" height="50" relative="1" as="geometry">
            <mxPoint x="895" y="340" as="sourcePoint" />
            <mxPoint x="945" y="120" as="targetPoint" />
          </mxGeometry>
        </mxCell>
        <mxCell id="VmW0fn3-Mdyx6dZJiZs_-116" style="edgeStyle=orthogonalEdgeStyle;rounded=0;orthogonalLoop=1;jettySize=auto;html=1;exitX=0.5;exitY=1;exitDx=0;exitDy=0;fontSize=10;" edge="1" parent="1" source="VmW0fn3-Mdyx6dZJiZs_-69" target="VmW0fn3-Mdyx6dZJiZs_-69">
          <mxGeometry relative="1" as="geometry" />
        </mxCell>
        <mxCell id="VmW0fn3-Mdyx6dZJiZs_-117" value="" style="endArrow=classic;html=1;fontSize=10;" edge="1" parent="1">
          <mxGeometry width="50" height="50" relative="1" as="geometry">
            <mxPoint x="825" y="500" as="sourcePoint" />
            <mxPoint x="445" y="500" as="targetPoint" />
          </mxGeometry>
        </mxCell>
        <mxCell id="VmW0fn3-Mdyx6dZJiZs_-118" value="result" style="text;html=1;strokeColor=none;fillColor=none;align=center;verticalAlign=middle;whiteSpace=wrap;rounded=0;" vertex="1" parent="1">
          <mxGeometry x="595" y="500" width="80" height="20" as="geometry" />
        </mxCell>
        <mxCell id="VmW0fn3-Mdyx6dZJiZs_-119" value="" style="rounded=0;whiteSpace=wrap;html=1;strokeWidth=2;gradientColor=none;fillColor=none;" vertex="1" parent="1">
          <mxGeometry x="45" y="480" width="295" height="210" as="geometry" />
        </mxCell>
        <mxCell id="VmW0fn3-Mdyx6dZJiZs_-120" value="" style="endArrow=none;dashed=1;html=1;strokeWidth=3;" edge="1" parent="1">
          <mxGeometry width="50" height="50" relative="1" as="geometry">
            <mxPoint x="45" y="610" as="sourcePoint" />
            <mxPoint x="340" y="610" as="targetPoint" />
          </mxGeometry>
        </mxCell>
        <mxCell id="VmW0fn3-Mdyx6dZJiZs_-121" value="&lt;font style=&quot;font-size: 13px&quot;&gt;render(sendSuccess)&lt;/font&gt;" style="text;html=1;align=center;verticalAlign=middle;resizable=0;points=[];autosize=1;strokeColor=none;fontSize=13;" vertex="1" parent="1">
          <mxGeometry x="200" y="500" width="140" height="20" as="geometry" />
        </mxCell>
        <mxCell id="VmW0fn3-Mdyx6dZJiZs_-122" value="" style="endArrow=classic;html=1;exitX=0;exitY=0.619;exitDx=0;exitDy=0;exitPerimeter=0;" edge="1" parent="1" source="VmW0fn3-Mdyx6dZJiZs_-89">
          <mxGeometry width="50" height="50" relative="1" as="geometry">
            <mxPoint x="295" y="519" as="sourcePoint" />
            <mxPoint x="185" y="519" as="targetPoint" />
          </mxGeometry>
        </mxCell>
        <mxCell id="VmW0fn3-Mdyx6dZJiZs_-123" value="" style="endArrow=classic;html=1;exitX=-0.05;exitY=0.919;exitDx=0;exitDy=0;exitPerimeter=0;" edge="1" parent="1" source="VmW0fn3-Mdyx6dZJiZs_-89">
          <mxGeometry width="50" height="50" relative="1" as="geometry">
            <mxPoint x="410" y="630" as="sourcePoint" />
            <mxPoint x="185" y="630" as="targetPoint" />
          </mxGeometry>
        </mxCell>
        <mxCell id="VmW0fn3-Mdyx6dZJiZs_-124" value="&lt;font style=&quot;font-size: 13px&quot;&gt;render(sendFail)&lt;/font&gt;" style="text;html=1;align=center;verticalAlign=middle;resizable=0;points=[];autosize=1;strokeColor=none;fontSize=13;" vertex="1" parent="1">
          <mxGeometry x="215" y="640" width="110" height="20" as="geometry" />
        </mxCell>
        <mxCell id="VmW0fn3-Mdyx6dZJiZs_-125" value="&lt;span style=&quot;font-size: 17px&quot;&gt;&lt;b&gt;ALT&lt;/b&gt;&lt;/span&gt;" style="rounded=0;whiteSpace=wrap;html=1;" vertex="1" parent="1">
          <mxGeometry x="45" y="480" width="50" height="40" as="geometry" />
        </mxCell>
        <mxCell id="VmW0fn3-Mdyx6dZJiZs_-126" value="&lt;font style=&quot;font-size: 13px;&quot;&gt;Result&lt;br style=&quot;font-size: 13px;&quot;&gt;Displayed&lt;br style=&quot;font-size: 13px;&quot;&gt;&lt;/font&gt;" style="text;html=1;align=center;verticalAlign=middle;resizable=0;points=[];autosize=1;strokeColor=none;fontSize=13;" vertex="1" parent="1">
          <mxGeometry x="80" y="720" width="70" height="40" as="geometry" />
        </mxCell>
        <mxCell id="VmW0fn3-Mdyx6dZJiZs_-127" value="" style="endArrow=classic;html=1;" edge="1" parent="1">
          <mxGeometry width="50" height="50" relative="1" as="geometry">
            <mxPoint x="165" y="720" as="sourcePoint" />
            <mxPoint x="70" y="720" as="targetPoint" />
          </mxGeometry>
        </mxCell>
        <mxCell id="VmW0fn3-Mdyx6dZJiZs_-128" value="[ Else ]" style="text;html=1;strokeColor=none;align=center;verticalAlign=middle;whiteSpace=wrap;rounded=0;fillColor=#ffffff;" vertex="1" parent="1">
          <mxGeometry x="45" y="610" width="40" height="20" as="geometry" />
        </mxCell>
        <mxCell id="VmW0fn3-Mdyx6dZJiZs_-129" value="if result == Success" style="text;html=1;strokeColor=none;align=center;verticalAlign=middle;whiteSpace=wrap;rounded=0;" vertex="1" parent="1">
          <mxGeometry x="40" y="530" width="130" height="20" as="geometry" />
        </mxCell>
        <mxCell id="VmW0fn3-Mdyx6dZJiZs_-132" value="&lt;b&gt;V1&lt;/b&gt;" style="ellipse;whiteSpace=wrap;html=1;" vertex="1" parent="1">
          <mxGeometry x="360" y="690" width="50" height="50" as="geometry" />
        </mxCell>
        <mxCell id="VmW0fn3-Mdyx6dZJiZs_-135" value="" style="endArrow=none;dashed=1;html=1;" edge="1" parent="1">
          <mxGeometry width="50" height="50" relative="1" as="geometry">
            <mxPoint x="434.5" y="810" as="sourcePoint" />
            <mxPoint x="434.5" y="770" as="targetPoint" />
          </mxGeometry>
        </mxCell>
        <mxCell id="VmW0fn3-Mdyx6dZJiZs_-136" value="Database" style="shape=umlActor;verticalLabelPosition=bottom;verticalAlign=top;html=1;outlineConnect=0;" vertex="1" parent="1">
          <mxGeometry x="940" y="710" width="30" height="60" as="geometry" />
        </mxCell>
        <mxCell id="VmW0fn3-Mdyx6dZJiZs_-137" value="Database&lt;br&gt;Connection" style="rounded=0;whiteSpace=wrap;html=1;" vertex="1" parent="1">
          <mxGeometry x="795" y="710" width="100" height="60" as="geometry" />
        </mxCell>
        <mxCell id="VmW0fn3-Mdyx6dZJiZs_-140" value="" style="endArrow=none;dashed=1;html=1;" edge="1" parent="1">
          <mxGeometry width="50" height="50" relative="1" as="geometry">
            <mxPoint x="844.5" y="810" as="sourcePoint" />
            <mxPoint x="844.5" y="770" as="targetPoint" />
          </mxGeometry>
        </mxCell>
        <mxCell id="VmW0fn3-Mdyx6dZJiZs_-141" value="" style="rounded=0;whiteSpace=wrap;html=1;fillColor=#ffffff;" vertex="1" parent="1">
          <mxGeometry x="425" y="810" width="20" height="150" as="geometry" />
        </mxCell>
        <mxCell id="VmW0fn3-Mdyx6dZJiZs_-142" value="" style="rounded=0;whiteSpace=wrap;html=1;fillColor=#ffffff;" vertex="1" parent="1">
          <mxGeometry x="835" y="810" width="20" height="93" as="geometry" />
        </mxCell>
        <mxCell id="VmW0fn3-Mdyx6dZJiZs_-143" value="" style="endArrow=classic;html=1;fontSize=10;" edge="1" parent="1">
          <mxGeometry width="50" height="50" relative="1" as="geometry">
            <mxPoint x="445" y="835" as="sourcePoint" />
            <mxPoint x="830" y="835" as="targetPoint" />
          </mxGeometry>
        </mxCell>
        <mxCell id="VmW0fn3-Mdyx6dZJiZs_-144" value="saveFeedback (is_anonymous, user_id, content)" style="text;html=1;align=center;verticalAlign=middle;resizable=0;points=[];autosize=1;strokeColor=none;" vertex="1" parent="1">
          <mxGeometry x="500" y="810" width="270" height="20" as="geometry" />
        </mxCell>
        <mxCell id="VmW0fn3-Mdyx6dZJiZs_-145" value=":IDGenerator" style="rounded=0;whiteSpace=wrap;html=1;" vertex="1" parent="1">
          <mxGeometry x="520" y="710" width="90" height="60" as="geometry" />
        </mxCell>
        <mxCell id="VmW0fn3-Mdyx6dZJiZs_-147" value="" style="endArrow=none;dashed=1;html=1;exitX=0.5;exitY=0;exitDx=0;exitDy=0;" edge="1" parent="1" source="VmW0fn3-Mdyx6dZJiZs_-148">
          <mxGeometry width="50" height="50" relative="1" as="geometry">
            <mxPoint x="564.5" y="820" as="sourcePoint" />
            <mxPoint x="564.5" y="770" as="targetPoint" />
          </mxGeometry>
        </mxCell>
        <mxCell id="VmW0fn3-Mdyx6dZJiZs_-148" value="" style="rounded=0;whiteSpace=wrap;html=1;fillColor=#ffffff;" vertex="1" parent="1">
          <mxGeometry x="555" y="840" width="20" height="40" as="geometry" />
        </mxCell>
        <mxCell id="VmW0fn3-Mdyx6dZJiZs_-149" value="" style="endArrow=classic;html=1;exitX=0;exitY=0.5;exitDx=0;exitDy=0;" edge="1" parent="1" source="VmW0fn3-Mdyx6dZJiZs_-142">
          <mxGeometry width="50" height="50" relative="1" as="geometry">
            <mxPoint x="830" y="856" as="sourcePoint" />
            <mxPoint x="575" y="856" as="targetPoint" />
          </mxGeometry>
        </mxCell>
        <mxCell id="VmW0fn3-Mdyx6dZJiZs_-152" value="&lt;span style=&quot;font-size: 10px&quot;&gt;FeedbackID :=&lt;/span&gt;&lt;span style=&quot;font-size: 10px&quot;&gt;&amp;nbsp;generateID()&lt;/span&gt;" style="text;html=1;strokeColor=none;fillColor=none;align=center;verticalAlign=middle;whiteSpace=wrap;rounded=0;" vertex="1" parent="1">
          <mxGeometry x="620" y="860" width="160" height="20" as="geometry" />
        </mxCell>
        <mxCell id="VmW0fn3-Mdyx6dZJiZs_-153" value="" style="endArrow=none;dashed=1;html=1;" edge="1" parent="1">
          <mxGeometry width="50" height="50" relative="1" as="geometry">
            <mxPoint x="954.5" y="852" as="sourcePoint" />
            <mxPoint x="954.5" y="802" as="targetPoint" />
          </mxGeometry>
        </mxCell>
        <mxCell id="VmW0fn3-Mdyx6dZJiZs_-155" value="" style="rounded=0;whiteSpace=wrap;html=1;fillColor=#ffffff;" vertex="1" parent="1">
          <mxGeometry x="945" y="850" width="20" height="70" as="geometry" />
        </mxCell>
        <mxCell id="VmW0fn3-Mdyx6dZJiZs_-156" value="" style="endArrow=classic;html=1;entryX=0;entryY=0.25;entryDx=0;entryDy=0;" edge="1" parent="1" target="VmW0fn3-Mdyx6dZJiZs_-155">
          <mxGeometry width="50" height="50" relative="1" as="geometry">
            <mxPoint x="855" y="868" as="sourcePoint" />
            <mxPoint x="935" y="869.5" as="targetPoint" />
          </mxGeometry>
        </mxCell>
        <mxCell id="VmW0fn3-Mdyx6dZJiZs_-157" value="Insert Data" style="text;html=1;strokeColor=none;fillColor=none;align=center;verticalAlign=middle;whiteSpace=wrap;rounded=0;" vertex="1" parent="1">
          <mxGeometry x="860" y="846.5" width="80" height="20" as="geometry" />
        </mxCell>
        <mxCell id="VmW0fn3-Mdyx6dZJiZs_-158" value="" style="endArrow=classic;html=1;exitX=0;exitY=0.5;exitDx=0;exitDy=0;" edge="1" parent="1" source="VmW0fn3-Mdyx6dZJiZs_-155">
          <mxGeometry width="50" height="50" relative="1" as="geometry">
            <mxPoint x="935" y="880" as="sourcePoint" />
            <mxPoint x="850" y="885" as="targetPoint" />
          </mxGeometry>
        </mxCell>
        <mxCell id="VmW0fn3-Mdyx6dZJiZs_-160" value="result" style="text;html=1;strokeColor=none;fillColor=none;align=center;verticalAlign=middle;whiteSpace=wrap;rounded=0;" vertex="1" parent="1">
          <mxGeometry x="860" y="885" width="80" height="20" as="geometry" />
        </mxCell>
        <mxCell id="VmW0fn3-Mdyx6dZJiZs_-161" value="" style="endArrow=classic;html=1;fontSize=10;" edge="1" parent="1">
          <mxGeometry width="50" height="50" relative="1" as="geometry">
            <mxPoint x="835" y="900" as="sourcePoint" />
            <mxPoint x="450" y="900" as="targetPoint" />
          </mxGeometry>
        </mxCell>
        <mxCell id="VmW0fn3-Mdyx6dZJiZs_-162" value="result" style="text;html=1;strokeColor=none;fillColor=none;align=center;verticalAlign=middle;whiteSpace=wrap;rounded=0;" vertex="1" parent="1">
          <mxGeometry x="605" y="900" width="80" height="20" as="geometry" />
        </mxCell>
      </root>
    </mxGraphModel>
  </diagram>
</mxfile>
